Coordinates
version=1
nRows=14
nColumns=24
inDegrees=yes

Units are S.I. units (second, meters, Newtons, ...)
Angles are in degrees.

endheader
time	pelvis_tilt	pelvis_list	pelvis_rotation	pelvis_tx	pelvis_ty	pelvis_tz	hip_flexion_r	hip_adduction_r	hip_rotation_r	knee_angle_r	ankle_angle_r	subtalar_angle_r	mtp_angle_r	hip_flexion_l	hip_adduction_l	hip_rotation_l	knee_angle_l	ankle_angle_l	subtalar_angle_l	mtp_angle_l	lumbar_extension	lumbar_bending	lumbar_rotation
      1.33500000	     14.41205371	      0.67134077	     -0.54902890	     -0.48084871	      0.94411516	      0.04075354	    -26.32348779	     -1.20340536	      4.30841654	    -11.20193844	     30.23822867	      6.78182483	     13.10720429	      0.51669747	     -0.43127429	    -23.65399822	      0.40415615	      4.54056013	     31.35797900	     36.57908040	    -25.57356730	      2.28183253	      4.37979062
      1.34000000	     14.42835626	      0.61207230	     -0.65044578	     -0.47585279	      0.94358116	      0.04030796	    -26.43159742	     -1.23983207	      4.38233654	    -11.68523558	     30.32812040	      6.98462078	     13.17227903	      0.58780824	     -0.46985696	    -22.96153431	     -0.28486446	      4.46681405	     30.64704176	     36.52817359	    -25.55440082	      2.17663952	      4.40467120
      1.34500000	     14.44539225	      0.56207540	     -0.75122654	     -0.47084681	      0.94306707	      0.03984192	    -26.52159668	     -1.29172429	      4.39189554	    -12.20616815	     30.42062453	      7.26410838	     13.27539480	      0.65167218	     -0.49736025	    -22.19299622	     -0.98718637	      4.34601677	     29.82744828	     36.46729025	    -25.53363607	      2.06034472	      4.43642991
      1.35000000	     14.47331948	      0.49855320	     -0.86917722	     -0.46585432	      0.94261403	      0.03941820	    -26.59593849	     -1.33871012	      4.39807356	    -12.77633084	     30.49041373	      7.58163797	     13.39542780	      0.69094043	     -0.53984399	    -21.37837436	     -1.68427943	      4.22283361	     28.91568801	     36.40090444	    -25.52625691	      1.94325454	      4.50372989
      1.35500000	     14.44529744	      0.49073179	     -0.93937640	     -0.46086240	      0.94211716	      0.03883375	    -26.59798475	     -1.43696664	      4.24087376	    -13.37463664	     30.56847521	      8.00092538	     13.59279187	      0.80531956	     -0.51500985	    -20.43728223	     -2.40463173	      3.94568721	     27.84266875	     36.31469295	    -25.45640087	      1.79643055	      4.46265687
      1.36000000	     14.45421020	      0.45700834	     -1.05471746	     -0.45589439	      0.94173442	      0.03832112	    -26.60735701	     -1.53142947	      4.13334401	    -14.02325556	     30.60364815	      8.46306155	     13.80391307	      0.86135999	     -0.51474423	    -19.51480016	     -3.10835611	      3.73390847	     26.69438324	     36.22661173	    -25.43193650	      1.65251169	      4.51805285
      1.36500000	     14.41558950	      0.47726136	     -1.11993554	     -0.45091890	      0.94133936	      0.03767318	    -26.53583151	     -1.67108609	      3.86109803	    -14.74227368	     30.63282230	      9.00319044	     14.12809248	      0.97650500	     -0.45074588	    -18.51603593	     -3.81339805	      3.41111931	     25.51690817	     36.12911658	    -25.35192778	      1.47658259	      4.44609772
      1.37000000	     14.39911908	      0.48483380	     -1.18902632	     -0.44596192	      0.94103358	      0.03699002	    -26.46550452	     -1.81702014	      3.53383441	    -15.49170831	     30.60984281	      9.71444368	     14.87027683	      1.07624375	     -0.39966800	    -17.53598873	     -4.54962819	      3.15240936	     24.33215009	     36.05044371	    -25.29974879	      1.31407796	      4.43186647
      1.37500000	     14.37530123	      0.54123060	     -1.32059282	     -0.44102780	      0.94079467	      0.03634989	    -26.34151760	     -2.04147024	      3.25042943	    -16.31277548	     30.52225040	     10.27291891	     16.30118764	      1.15887641	     -0.28425082	    -16.62616080	     -5.24312705	      2.86777856	     23.04117626	     35.94238010	    -25.24296249	      1.07719506	      4.46773220
      1.38000000	     14.32633915	      0.55500226	     -1.36891856	     -0.43615081	      0.94061312	      0.03557939	    -26.19920042	     -2.18948776	      2.95929900	    -17.11188462	     30.35822044	     10.81171529	     16.58849576	      1.29073715	     -0.21452564	    -15.59727844	     -5.96592252	      2.60407736	     21.70321548	     35.79790641	    -25.16468055	      0.91993523	      4.43920509
      1.38500000	     14.27213054	      0.61087294	     -1.43947189	     -0.43128616	      0.94046457	      0.03475989	    -25.98808153	     -2.41620797	      2.55138440	    -18.03329735	     30.24612076	     11.60304793	     17.02891480	      1.42719166	     -0.09388088	    -14.65102983	     -6.69893844	      2.39615629	     20.42957793	     35.62994771	    -25.08295482	      0.71603665	      4.41841314
      1.39000000	     14.25279582	      0.68339085	     -1.53598514	     -0.42640243	      0.94045132	      0.03395592	    -25.79007505	     -2.68164953	      2.14391573	    -18.97066368	     29.86188775	     12.31907726	     19.96825595	      1.50733028	      0.04669626	    -13.81925998	     -7.41816918	      2.27212070	     19.30700514	     34.95330529	    -25.03770896	      0.48457541	      4.41093451
      1.39500000	     14.16622574	      0.71544456	     -1.57460907	     -0.42164553	      0.94039228	      0.03303061	    -25.47466808	     -2.88828280	      1.74321269	    -20.00427955	     29.64747640	     13.11161980	     20.20030539	      1.69396384	      0.14558110	    -12.92022290	     -8.18869923	      2.21803363	     18.10058858	     34.76339755	    -24.93376290	      0.32491423	      4.36407457
      1.40000000	     14.05688609	      0.82213463	     -1.61939078	     -0.41680310	      0.94037203	      0.03200765	    -25.09747734	     -3.20498062	      1.20006392	    -21.11117449	     29.34347669	     14.04270658	     20.68224994	      1.86849530	      0.33703331	    -12.08238130	     -8.89557620	      2.16233556	     17.04345191	     34.49002930	    -24.79186050	      0.09584310	      4.33785383
